# xmcd CD database file
#
# Track frame offsets:
#	150
#	28034
#	49890
#	61630
#	90202
#	109295
#	128722
#	140941
#
# Disc length: 2232 seconds
#
# Revision: 0
# Processed by: cddbd v1.4PL0 Copyright (c) Steve Scherf et al.
# Submitted via: CDex 1.50
#
DISCID=6908b608
DTITLE=Various Artist - The Greenhills Jazz Sextet
DYEAR=1998
DGENRE=Jazz
TTITLE0=The Way You Look Tonight
TTITLE1=In A Sentimental Mood
TTITLE2=Mr. P.C.
TTITLE3=Our Love is Here to Stay
TTITLE4=Body and Soul
TTITLE5=Impressions
TTITLE6=In Walked Bud
TTITLE7=Spain
EXTD=YEAR: 1998
EXTT0=
EXTT1=
EXTT2=
EXTT3=
EXTT4=
EXTT5=
EXTT6=
EXTT7=
PLAYORDER=
